<svg xmlns="http://www.w3.org/2000/svg" width="14" height="18" fill="none" viewBox="0 0 14 18">
  <g clip-path="url(#a)">
    <path fill="#fff" fill-rule="evenodd" d="M4.333.263a.972.972 0 0 1 1.331 0l7.785 7.438A1.756 1.756 0 0 1 14 8.973a1.74 1.74 0 0 1-.551 1.272l-7.841 7.492a.975.975 0 0 1-1.322.01.878.878 0 0 1-.286-.64.87.87 0 0 1 .277-.643l7.175-6.855a.878.878 0 0 0 .276-.637.87.87 0 0 0-.276-.636L4.334 1.535a.877.877 0 0 1-.276-.636.869.869 0 0 1 .275-.636Z" clip-rule="evenodd"/>
  </g>
  <g clip-path="url(#b)">
    <path fill="#fff" fill-rule="evenodd" d="M.2 4.146A.61.61 0 0 1 .598 4a.61.61 0 0 1 .399.146l4.67 4.132c.105.09.188.2.245.322a.906.906 0 0 1 0 .77.979.979 0 0 1-.244.321L.964 13.854a.62.62 0 0 1-.793.005.49.49 0 0 1-.126-.161.453.453 0 0 1 .12-.552l4.306-3.808a.49.49 0 0 0 .122-.161.453.453 0 0 0-.122-.546L.2 4.852a.489.489 0 0 1-.123-.16.452.452 0 0 1 0-.385.487.487 0 0 1 .122-.161Z" clip-rule="evenodd"/>
  </g>
  <defs>
    <clipPath id="a">
      <path fill="#fff" d="M14 0H4v18h10z"/>
    </clipPath>
    <clipPath id="b">
      <path fill="#fff" d="M6 4H0v10h6z"/>
    </clipPath>
  </defs>
</svg>
